<svg width="312" height="93" viewBox="0 0 312 93" fill="none" xmlns="http://www.w3.org/2000/svg">
<path d="M3.45601 90.88V79.744L39.04 45.952C42.0267 43.136 44.2453 40.6613 45.696 38.528C47.1467 36.3947 48.0854 34.432 48.512 32.64C49.024 30.7627 49.28 29.0133 49.28 27.392C49.28 23.296 47.872 20.1387 45.056 17.92C42.24 15.616 38.1013 14.464 32.64 14.464C28.288 14.464 24.32 15.232 20.736 16.768C17.2373 18.304 14.208 20.6507 11.648 23.808L1.32322e-05 14.848C3.49868 10.1547 8.19201 6.528 14.08 3.968C20.0533 1.32267 26.7093 0 34.048 0C40.5333 0 46.1653 1.06667 50.944 3.2C55.808 5.248 59.52 8.192 62.08 12.032C64.7254 15.872 66.048 20.4373 66.048 25.728C66.048 28.6293 65.664 31.5307 64.896 34.432C64.128 37.248 62.6774 40.2347 60.544 43.392C58.4107 46.5493 55.296 50.0907 51.2 54.016L20.608 83.072L17.152 76.8H69.504V90.88H3.45601ZM116.484 92.16C109.401 92.16 103.001 90.368 97.284 86.784C91.652 83.2 87.2147 77.9947 83.972 71.168C80.7293 64.256 79.108 55.8933 79.108 46.08C79.108 36.2667 80.7293 27.9467 83.972 21.12C87.2147 14.208 91.652 8.96 97.284 5.376C103.001 1.792 109.401 0 116.484 0C123.652 0 130.052 1.792 135.684 5.376C141.316 8.96 145.753 14.208 148.996 21.12C152.324 27.9467 153.988 36.2667 153.988 46.08C153.988 55.8933 152.324 64.256 148.996 71.168C145.753 77.9947 141.316 83.2 135.684 86.784C130.052 90.368 123.652 92.16 116.484 92.16ZM116.484 77.696C120.665 77.696 124.292 76.5867 127.364 74.368C130.436 72.064 132.825 68.5653 134.532 63.872C136.324 59.1787 137.22 53.248 137.22 46.08C137.22 38.8267 136.324 32.896 134.532 28.288C132.825 23.5947 130.436 20.1387 127.364 17.92C124.292 15.616 120.665 14.464 116.484 14.464C112.473 14.464 108.889 15.616 105.732 17.92C102.66 20.1387 100.228 23.5947 98.436 28.288C96.7293 32.896 95.876 38.8267 95.876 46.08C95.876 53.248 96.7293 59.1787 98.436 63.872C100.228 68.5653 102.66 72.064 105.732 74.368C108.889 76.5867 112.473 77.696 116.484 77.696ZM163.956 90.88V79.744L199.54 45.952C202.527 43.136 204.745 40.6613 206.196 38.528C207.647 36.3947 208.585 34.432 209.012 32.64C209.524 30.7627 209.78 29.0133 209.78 27.392C209.78 23.296 208.372 20.1387 205.556 17.92C202.74 15.616 198.601 14.464 193.14 14.464C188.788 14.464 184.82 15.232 181.236 16.768C177.737 18.304 174.708 20.6507 172.148 23.808L160.5 14.848C163.999 10.1547 168.692 6.528 174.58 3.968C180.553 1.32267 187.209 0 194.548 0C201.033 0 206.665 1.06667 211.444 3.2C216.308 5.248 220.02 8.192 222.58 12.032C225.225 15.872 226.548 20.4373 226.548 25.728C226.548 28.6293 226.164 31.5307 225.396 34.432C224.628 37.248 223.177 40.2347 221.044 43.392C218.911 46.5493 215.796 50.0907 211.7 54.016L181.108 83.072L177.652 76.8H230.004V90.88H163.956ZM278.392 92.16C270.285 92.16 263.331 90.4533 257.528 87.04C251.725 83.5413 247.288 78.5067 244.216 71.936C241.144 65.3653 239.608 57.2587 239.608 47.616C239.608 37.376 241.443 28.7147 245.112 21.632C248.867 14.5493 254.029 9.17333 260.6 5.504C267.256 1.83467 274.893 0 283.512 0C288.035 0 292.344 0.469332 296.44 1.408C300.621 2.34667 304.163 3.79734 307.064 5.76L300.92 18.304C298.445 16.6827 295.757 15.5733 292.856 14.976C290.04 14.2933 287.053 13.952 283.896 13.952C275.448 13.952 268.749 16.5547 263.8 21.76C258.851 26.9653 256.376 34.6453 256.376 44.8C256.376 46.4213 256.419 48.3413 256.504 50.56C256.589 52.6933 256.888 54.8693 257.4 57.088L252.28 51.456C253.816 47.9573 255.907 45.056 258.552 42.752C261.283 40.3627 264.483 38.5707 268.152 37.376C271.907 36.1813 275.96 35.584 280.312 35.584C286.2 35.584 291.448 36.736 296.056 39.04C300.664 41.2587 304.333 44.4587 307.064 48.64C309.795 52.736 311.16 57.5573 311.16 63.104C311.16 68.992 309.709 74.112 306.808 78.464C303.907 82.816 299.981 86.1867 295.032 88.576C290.083 90.9653 284.536 92.16 278.392 92.16ZM277.496 79.104C280.909 79.104 283.939 78.5067 286.584 77.312C289.229 76.032 291.277 74.24 292.728 71.936C294.264 69.632 295.032 66.944 295.032 63.872C295.032 59.1787 293.411 55.4667 290.168 52.736C286.925 50.0053 282.573 48.64 277.112 48.64C273.528 48.64 270.371 49.3227 267.64 50.688C264.995 51.968 262.861 53.76 261.24 56.064C259.704 58.368 258.936 61.0133 258.936 64C258.936 66.7307 259.661 69.248 261.112 71.552C262.563 73.856 264.653 75.6907 267.384 77.056C270.2 78.4213 273.571 79.104 277.496 79.104Z" fill="#E0D0B6"/>
</svg>
