<svg width="208" height="187" viewBox="0 0 208 187" fill="none" xmlns="http://www.w3.org/2000/svg">
<rect width="208" height="187" fill="#F5ECDD"/>
<path d="M55.7098 109.6C55.9231 106.997 56.3284 104.096 56.9258 100.896C57.5658 97.6533 58.2911 94.3467 59.1018 90.976C59.9551 87.5627 60.8724 84.2347 61.8538 80.992C62.8778 77.7493 63.9018 74.7627 64.9258 72.032C65.9924 69.3013 67.0164 67.0187 67.9978 65.184C65.9071 66.8907 63.8591 68.9813 61.8538 71.456C59.8484 73.888 57.9071 76.512 56.0298 79.328C54.1951 82.1013 52.4458 84.8533 50.7818 87.584C49.1604 90.272 47.6884 92.7467 46.3658 95.008C45.0431 97.2693 43.9124 99.104 42.9738 100.512C42.2911 101.536 41.4378 102.816 40.4137 104.352C39.3898 105.888 38.1951 107.509 36.8298 109.216C35.4644 110.923 33.9071 112.523 32.1578 114.016C30.4511 115.509 28.5524 116.725 26.4618 117.664C24.3711 118.603 22.0884 119.072 19.6138 119.072C17.0964 119.072 14.9844 118.517 13.2778 117.408C11.5711 116.341 10.2698 114.933 9.37375 113.184C8.52042 111.435 8.09375 109.6 8.09375 107.68C8.09375 105.675 8.52042 103.733 9.37375 101.856C10.2271 99.936 11.3578 98.1653 12.7658 96.544C14.2164 94.9227 15.8378 93.5573 17.6298 92.448C19.4644 91.3387 21.3418 90.5707 23.2618 90.144C23.4324 90.1013 23.5818 90.08 23.7098 90.08C24.0084 90.08 24.1578 90.208 24.1578 90.464C24.1578 90.592 23.9231 90.784 23.4538 91.04C19.8271 93.0027 17.1178 95.4773 15.3258 98.464C13.5338 101.451 12.6378 104.395 12.6378 107.296C12.6378 108.917 13.0004 110.411 13.7258 111.776C14.4511 113.141 15.4538 114.208 16.7338 114.976C18.0138 115.787 19.4858 116.192 21.1498 116.192C23.4111 116.192 25.4804 115.68 27.3578 114.656C29.2351 113.675 30.9631 112.352 32.5418 110.688C34.1204 109.067 35.6138 107.296 37.0218 105.376C38.4724 103.413 39.8591 101.493 41.1818 99.616C42.0351 98.464 43.0591 96.9067 44.2537 94.944C45.4484 92.9387 46.7924 90.72 48.2858 88.288C49.8218 85.8133 51.4431 83.2747 53.1498 80.672C54.8991 78.0693 56.7124 75.552 58.5898 73.12C60.4671 70.688 62.3658 68.4907 64.2858 66.528C66.2484 64.5653 68.2111 63.008 70.1738 61.856C70.6431 61.5573 71.0698 61.344 71.4538 61.216C71.8804 61.088 72.4778 61.024 73.2458 61.024C73.7578 61.024 73.9498 61.1947 73.8218 61.536C73.6938 61.8347 73.4804 62.1973 73.1818 62.624C72.2004 64.1173 71.1764 66.1227 70.1098 68.64C69.0858 71.1147 68.0618 73.9307 67.0378 77.088C66.0564 80.2453 65.1178 83.5307 64.2218 86.944C63.3258 90.3573 62.5151 93.7707 61.7898 97.184C61.0644 100.555 60.4884 103.691 60.0618 106.592C64.1578 99.2107 68.2538 92.512 72.3498 86.496C76.4884 80.48 80.5418 75.296 84.5098 70.944C88.5204 66.592 92.3818 63.2213 96.0938 60.832C96.6911 60.192 97.5231 59.4667 98.5898 58.656C99.6564 57.8453 100.68 57.44 101.662 57.44C102.259 57.44 102.75 57.6107 103.134 57.952C103.56 58.2507 103.774 58.6347 103.774 59.104C103.774 59.5733 103.475 60.1067 102.878 60.704C102.323 61.2587 101.512 61.7067 100.446 62.048C100.147 62.1333 99.8058 62.24 99.4218 62.368C99.0804 62.4533 98.6964 62.5387 98.2698 62.624C96.4778 65.312 94.4938 68.7893 92.3178 73.056C90.1844 77.28 88.2218 81.9733 86.4298 87.136C85.4484 89.9947 84.5098 92.9387 83.6138 95.968C82.7604 98.9547 82.3338 101.728 82.3338 104.288C82.3338 105.227 82.5044 106.123 82.8458 106.976C83.1871 107.829 83.8271 108.256 84.7658 108.256C85.8751 108.256 87.0911 107.659 88.4138 106.464C89.7364 105.227 91.0378 103.648 92.3178 101.728C93.5978 99.808 94.6644 97.7813 95.5178 95.648C96.0298 95.648 96.2858 95.84 96.2858 96.224C95.2618 98.5707 94.0458 100.853 92.6378 103.072C91.2724 105.291 89.7578 107.104 88.0938 108.512C86.4724 109.963 84.7658 110.688 82.9738 110.688C81.5658 110.688 80.4138 110.176 79.5178 109.152C78.6644 108.128 78.2378 106.613 78.2378 104.608C78.2378 102.901 78.5151 100.811 79.0698 98.336C79.6671 95.8187 80.4564 93.1093 81.4378 90.208C82.4618 87.264 83.5711 84.2987 84.7658 81.312C86.3018 77.6 87.7951 74.3573 89.2458 71.584C90.6964 68.768 92.0404 66.4213 93.2778 64.544C89.7364 67.36 86.0884 71.072 82.3338 75.68C78.6218 80.2453 74.8884 85.4933 71.1338 91.424C67.3791 97.3547 63.6458 103.776 59.9338 110.688C59.5924 111.328 59.0591 111.691 58.3338 111.776C57.6511 111.904 57.0324 111.776 56.4778 111.392C55.9231 111.051 55.6671 110.453 55.7098 109.6ZM108.488 110.88C104.862 110.88 101.854 110.304 99.4643 109.152C97.0749 108.043 95.2829 106.571 94.0883 104.736C92.9363 102.859 92.3603 100.875 92.3603 98.784C92.3603 96.4373 93.0643 94.112 94.4723 91.808C95.8803 89.4613 97.9709 87.456 100.744 85.792C103.56 84.0853 106.995 83.0187 111.048 82.592C110.451 81.7813 110.003 80.864 109.704 79.84C109.406 78.7733 109.256 77.7707 109.256 76.832C109.299 74.5707 109.939 72.5867 111.176 70.88C112.414 69.1307 113.992 67.6587 115.912 66.464C117.875 65.2693 119.966 64.3733 122.184 63.776C124.403 63.136 126.494 62.816 128.456 62.816C129.651 62.816 130.867 62.9867 132.104 63.328C133.342 63.6267 134.387 64.1813 135.24 64.992C136.094 65.8027 136.52 66.9547 136.52 68.448C136.52 69.6853 136.136 70.7947 135.368 71.776C134.6 72.7573 133.662 73.248 132.552 73.248C131.742 73.248 131.038 72.9493 130.44 72.352C129.843 71.7547 129.544 71.072 129.544 70.304C129.544 69.408 129.822 68.6827 130.376 68.128C130.974 67.5307 131.699 67.232 132.552 67.232C132.936 67.232 133.363 67.36 133.832 67.616C134.344 67.872 134.664 68.128 134.792 68.384C134.835 68.2133 134.856 67.9787 134.856 67.68C134.856 66.528 134.387 65.7173 133.448 65.248C132.51 64.7787 131.507 64.544 130.44 64.544C128.734 64.544 126.75 64.9707 124.488 65.824C122.227 66.6347 120.03 67.9787 117.896 69.856C117.128 70.5387 116.339 71.4347 115.528 72.544C114.718 73.6533 114.035 74.848 113.48 76.128C112.926 77.3653 112.648 78.624 112.648 79.904C112.648 80.8853 112.819 81.7387 113.16 82.464C113.8 82.464 114.526 82.4427 115.336 82.4C116.19 82.3147 117.064 82.272 117.96 82.272C119.07 82.272 119.944 82.5067 120.584 82.976C121.224 83.4453 121.544 83.9787 121.544 84.576C121.544 85.0027 121.288 85.408 120.776 85.792C120.264 86.176 119.454 86.368 118.344 86.368C116.936 86.368 115.656 86.0693 114.504 85.472C113.395 84.832 112.52 84.192 111.88 83.552C109.064 83.936 106.675 84.9813 104.712 86.688C102.75 88.3947 101.256 90.4213 100.232 92.768C99.2083 95.072 98.6963 97.376 98.6963 99.68C98.6963 101.515 99.0376 103.221 99.7203 104.8C100.446 106.379 101.534 107.637 102.984 108.576C104.435 109.557 106.27 110.048 108.488 110.048C110.792 110.048 112.883 109.621 114.76 108.768C116.68 107.957 118.323 106.891 119.688 105.568C121.054 104.245 122.099 102.859 122.824 101.408C123.592 99.9147 123.976 98.528 123.976 97.248C123.976 96.1387 123.571 95.2213 122.76 94.496C121.992 93.728 120.968 93.1733 119.688 92.832C118.408 92.448 117.043 92.256 115.592 92.256C114.099 92.256 112.606 92.4693 111.112 92.896C109.662 93.28 108.424 93.8987 107.4 94.752C106.376 95.5627 105.758 96.608 105.544 97.888C105.544 97.9733 105.523 98.08 105.48 98.208C105.48 98.2933 105.48 98.3787 105.48 98.464C105.48 99.4027 105.822 100.341 106.504 101.28C107.23 102.176 108.339 103.008 109.832 103.776C110.216 103.947 110.408 104.267 110.408 104.736C110.408 105.205 110.195 105.333 109.768 105.12C107.422 103.883 105.694 102.539 104.584 101.088C103.518 99.5947 102.984 98.1867 102.984 96.864C102.984 94.944 104.008 93.3013 106.056 91.936C108.147 90.528 111.112 89.824 114.952 89.824H126.28C126.963 89.824 127.966 89.6747 129.288 89.376C130.654 89.0773 132.04 88.6507 133.448 88.096C134.856 87.4987 136.051 86.816 137.032 86.048C138.056 85.2373 138.568 84.32 138.568 83.296C138.568 82.7413 138.376 82.144 137.992 81.504C137.907 81.376 137.864 81.2267 137.864 81.056C137.864 80.8 137.971 80.672 138.184 80.672C138.355 80.672 138.504 80.7787 138.632 80.992C139.272 81.9307 139.592 82.8907 139.592 83.872C139.592 85.024 139.166 86.0907 138.312 87.072C137.502 88.0533 136.392 88.928 134.984 89.696C133.576 90.4213 131.998 90.976 130.248 91.36C128.542 91.744 126.792 91.9147 125 91.872C125.811 92.5547 126.408 93.3227 126.792 94.176C127.176 95.0293 127.368 95.9253 127.368 96.864C127.368 98.4427 126.899 100.064 125.96 101.728C125.022 103.349 123.699 104.864 121.992 106.272C120.286 107.637 118.28 108.747 115.976 109.6C113.715 110.453 111.219 110.88 108.488 110.88ZM118.344 85.28C119.752 85.28 120.456 85.0027 120.456 84.448C120.456 84.2347 120.264 84.0213 119.88 83.808C119.539 83.552 119.07 83.4027 118.472 83.36C118.216 83.3173 117.79 83.296 117.192 83.296C116.595 83.296 115.955 83.296 115.272 83.296C114.632 83.296 114.099 83.296 113.672 83.296C114.739 84.6187 116.296 85.28 118.344 85.28ZM141.535 110.496C140.596 110.496 139.679 110.432 138.783 110.304C136.095 109.963 134.111 109.173 132.831 107.936C131.593 106.699 130.975 105.355 130.975 103.904C130.975 102.325 131.679 100.896 133.087 99.616C134.537 98.336 136.564 97.696 139.167 97.696C139.977 97.696 140.831 97.7813 141.727 97.952C142.665 98.08 143.647 98.3147 144.671 98.656C145.183 98.8267 145.439 99.0613 145.439 99.36C145.439 99.5307 145.311 99.616 145.055 99.616C144.799 99.616 144.585 99.5733 144.415 99.488C143.732 99.232 143.071 99.0613 142.431 98.976C141.833 98.848 141.257 98.784 140.703 98.784C138.868 98.784 137.46 99.3173 136.479 100.384C135.54 101.408 135.071 102.539 135.071 103.776C135.071 104.971 135.561 106.059 136.543 107.04C137.524 108.021 139.081 108.512 141.215 108.512C143.903 108.512 146.377 107.893 148.639 106.656C150.943 105.419 153.119 103.797 155.167 101.792C157.343 99.6587 159.327 97.0987 161.119 94.112C162.911 91.0827 164.681 87.8613 166.431 84.448C168.223 80.992 170.164 77.5147 172.255 74.016C174.345 70.5173 176.756 67.232 179.487 64.16C180.041 63.5627 180.596 62.944 181.151 62.304C181.748 61.6213 182.324 61.0453 182.879 60.576C181.428 60.3627 179.935 60.2133 178.399 60.128C176.863 60 175.348 59.936 173.855 59.936C171.636 59.936 169.524 60.0427 167.519 60.256C165.556 60.4267 163.593 60.6827 161.631 61.024C159.625 61.408 157.385 62.0053 154.911 62.816C152.436 63.6267 150.025 64.6933 147.679 66.016C145.375 67.296 143.391 68.8533 141.727 70.688C140.105 72.5227 139.103 74.6347 138.719 77.024C138.676 77.2373 138.633 77.472 138.591 77.728C138.591 77.9413 138.591 78.1547 138.591 78.368C138.591 80.3307 139.252 81.952 140.575 83.232C141.94 84.512 143.519 85.152 145.311 85.152C146.633 85.152 147.913 84.8107 149.151 84.128C150.388 83.4027 151.497 82.464 152.479 81.312C153.46 80.1173 154.185 78.816 154.655 77.408C154.697 76.9813 154.868 76.768 155.167 76.768C155.423 76.768 155.551 77.0027 155.551 77.472C155.508 79.3493 154.953 80.9707 153.887 82.336C152.863 83.7013 151.561 84.7467 149.983 85.472C148.404 86.1547 146.804 86.496 145.183 86.496C143.519 86.496 141.94 86.1547 140.447 85.472C138.953 84.7467 137.737 83.7013 136.799 82.336C135.86 80.928 135.391 79.2 135.391 77.152C135.391 74.7627 135.967 72.6507 137.119 70.816C138.313 68.9813 139.892 67.3813 141.855 66.016C143.817 64.608 145.951 63.4347 148.255 62.496C150.559 61.5147 152.863 60.7467 155.167 60.192C157.471 59.5947 159.561 59.1467 161.439 58.848C163.359 58.5493 165.343 58.3147 167.391 58.144C169.481 57.9733 171.593 57.888 173.727 57.888C175.561 57.888 177.396 57.9733 179.231 58.144C181.065 58.3147 182.857 58.5707 184.607 58.912C185.332 58.3573 186.079 57.8667 186.847 57.44C187.615 57.0133 188.468 56.6293 189.407 56.288C190.004 56.032 190.452 55.904 190.751 55.904C191.007 55.904 191.135 55.9893 191.135 56.16C191.135 56.4587 190.793 56.8213 190.111 57.248C189.769 57.4187 189.343 57.7173 188.831 58.144C188.319 58.5707 187.764 59.0613 187.167 59.616C189.94 60.2987 192.436 61.3227 194.655 62.688C197.087 64.1387 198.815 65.6747 199.839 67.296C200.905 68.9173 201.439 70.5813 201.439 72.288C201.439 74.2507 200.841 76.2133 199.647 78.176C198.452 80.096 196.895 81.888 194.975 83.552C193.055 85.216 190.943 86.6667 188.639 87.904C186.335 89.0987 184.052 89.9733 181.791 90.528C179.615 91.0827 177.417 91.488 175.199 91.744C172.98 92 170.996 92.128 169.247 92.128C168.948 92.128 168.628 92.128 168.287 92.128C167.988 92.128 167.689 92.1067 167.391 92.064C165.94 94.112 164.447 96.1173 162.911 98.08C161.375 100 159.647 101.877 157.727 103.712C155.38 105.931 152.82 107.616 150.047 108.768C147.273 109.92 144.436 110.496 141.535 110.496ZM168.287 90.656C169.908 90.6987 171.721 90.5707 173.727 90.272C175.732 89.9733 177.737 89.5253 179.743 88.928C183.071 87.904 186.057 86.432 188.703 84.512C191.391 82.592 193.503 80.4587 195.039 78.112C196.617 75.7653 197.407 73.4613 197.407 71.2C197.407 69.8347 197.065 68.5333 196.383 67.296C195.743 66.0587 194.676 64.9493 193.183 63.968C192.201 63.328 191.092 62.7733 189.855 62.304C188.617 61.8347 187.316 61.4507 185.951 61.152C183.775 64.224 181.727 67.424 179.807 70.752C177.929 74.08 176.052 77.4293 174.175 80.8C172.34 84.1707 170.377 87.456 168.287 90.656Z" fill="#3D2314"/>
</svg>
